<svg width="48" height="24" viewBox="0 0 48 24" xmlns="http://www.w3.org/2000/svg" xmlns:xlink="http://www.w3.org/1999/xlink"><view viewBox="0 0 24 24"/><svg width="24" height="24" viewBox="-4 -4 24 24"><path d="M14.28 15H1.75c-.104 0-.172-.034-.24-.102-.07-.07-.103-.17-.103-.274L2.09 4.04c0-.172.17-.308.342-.308H5.3v-.034C5.3 2.195 6.495 1 7.997 1c1.503 0 2.698 1.195 2.698 2.698v.034h2.868c.17 0 .342.136.342.307l.683 10.515v.103c.034.203-.103.34-.308.34zM10.046 3.698c0-1.127-.888-2.015-2.014-2.015-1.127 0-2.015.888-2.015 2.015v.034l4.03-.034c0 .034 0 .034 0 0zm3.244.717h-2.56V5.2c.17.102.272.307.272.512 0 .342-.273.615-.614.615-.342 0-.615-.273-.615-.615 0-.205.102-.41.273-.512v-.785h-4.03V5.2c.172.102.274.307.274.512 0 .342-.273.615-.615.615-.34 0-.614-.273-.614-.615 0-.205.104-.41.275-.512v-.785h-2.56l-.65 9.902h11.78l-.614-9.902z"/></svg><view viewBox="24 0 24 24"/><svg width="24" height="24" viewBox="-4 -4 24 24" x="24"><path d="M14.848 14.863c-.068.07-.17.137-.273.137-.102 0-.205-.034-.273-.137l-3.86-3.858c-1.023.888-2.355 1.4-3.72 1.4-3.142 0-5.703-2.56-5.703-5.703C1.02 3.562 3.58 1 6.72 1c3.143 0 5.704 2.56 5.704 5.702 0 1.4-.512 2.698-1.4 3.757l3.858 3.856c.137.137.137.41-.034.546zm-3.244-8.195c0-2.697-2.22-4.917-4.917-4.917-2.697 0-4.917 2.22-4.917 4.92s2.22 4.917 4.917 4.917c1.298 0 2.56-.512 3.483-1.434.922-.92 1.434-2.15 1.434-3.482zm-5.087-3.14C4.843 3.8 3.647 5.2 3.647 6.872c0 .137 0 .307.035.478.035.172-.102.377-.307.377H3.34c-.17 0-.306-.137-.34-.307-.035-.205-.035-.41-.035-.58 0-2.016 1.435-3.723 3.45-4.03.17-.034.375.102.375.273.034.24-.07.444-.273.444z"/></svg></svg>