<?xml version="1.0" encoding="UTF-8" standalone="no"?>
<!-- Created with Inkscape (http://www.inkscape.org/) -->

<svg
   xmlns:dc="http://purl.org/dc/elements/1.1/"
   xmlns:cc="http://creativecommons.org/ns#"
   xmlns:rdf="http://www.w3.org/1999/02/22-rdf-syntax-ns#"
   xmlns:svg="http://www.w3.org/2000/svg"
   xmlns="http://www.w3.org/2000/svg"
   version="1.1"
   width="16"
   height="16"
   id="svg3048">
  <defs
     id="defs3050" />
  <metadata
     id="metadata3053">
    <rdf:RDF>
      <cc:Work
         rdf:about="">
        <dc:format>image/svg+xml</dc:format>
        <dc:type
           rdf:resource="http://purl.org/dc/dcmitype/StillImage" />
        <dc:title></dc:title>
      </cc:Work>
    </rdf:RDF>
  </metadata>
  <g
     id="layer1">
    <path
       d="m 14.280311,15 c 0,0 0,0 0,0 H 1.7486041 C 1.6461651,15 1.5778728,14.96585 1.5095799,14.897561 1.4412859,14.829271 1.4071408,14.726829 1.4071408,14.62439 L 2.0900674,4.0390254 c 0,-0.1707319 0.1707319,-0.3073171 0.3414638,-0.3073171 h 2.8682926 v -0.034147 c 0,-1.5024389 1.1951216,-2.6975612 2.6975609,-2.6975612 1.5024382,0 2.6975613,1.1951223 2.6975613,2.6975612 0,0 0,0.034147 0,0.034147 h 2.868293 c 0.170731,0 0.341463,0.1365852 0.341463,0.3073171 l 0.682927,10.5170726 c 0,0.03415 0,0.06829 0,0.102439 C 14.621779,14.863415 14.48519,15 14.280311,15 z M 10.046165,3.6975621 c 0,-1.1268294 -0.8878052,-2.0146341 -2.0146336,-2.0146341 -1.1268295,0 -2.0146344,0.8878047 -2.0146344,2.0146341 v 0.034147 l 4.029268,-0.034147 c 0,0.034147 0,0.034147 0,0 z m 3.243902,0.7170728 h -2.560975 v 0.7853662 c 0.170732,0.102439 0.273171,0.3073171 0.273171,0.5121952 0,0.3414633 -0.273171,0.6146337 -0.614635,0.6146337 -0.341463,0 -0.6146341,-0.2731704 -0.6146341,-0.6146337 0,-0.2048781 0.1024396,-0.4097562 0.2731711,-0.5121952 V 4.4146349 H 6.016897 v 0.7853662 c 0.1707318,0.102439 0.2731707,0.3073171 0.2731707,0.5121952 0,0.3414633 -0.2731707,0.6146337 -0.6146341,0.6146337 -0.3414635,0 -0.6146341,-0.2731704 -0.6146341,-0.6146337 0,-0.2048781 0.1024389,-0.4097562 0.2731706,-0.5121952 V 4.4146349 H 2.7729945 L 2.1242141,14.317074 H 13.904702 L 13.290067,4.4146349 z"
       id="path43" />
  </g>
</svg>
