<?xml version="1.0" encoding="UTF-8" standalone="no"?>
<!-- Created with Inkscape (http://www.inkscape.org/) -->

<svg
   xmlns:dc="http://purl.org/dc/elements/1.1/"
   xmlns:cc="http://creativecommons.org/ns#"
   xmlns:rdf="http://www.w3.org/1999/02/22-rdf-syntax-ns#"
   xmlns:svg="http://www.w3.org/2000/svg"
   xmlns="http://www.w3.org/2000/svg"
   version="1.1"
   width="16"
   height="16"
   id="svg3048">
  <defs
     id="defs3050" />
  <metadata
     id="metadata3053">
    <rdf:RDF>
      <cc:Work
         rdf:about="">
        <dc:format>image/svg+xml</dc:format>
        <dc:type
           rdf:resource="http://purl.org/dc/dcmitype/StillImage" />
        <dc:title></dc:title>
      </cc:Work>
    </rdf:RDF>
  </metadata>
  <g
     id="layer1">
    <path
       d="M 14.848297,14.863414 C 14.780007,14.931704 14.677566,15 14.575126,15 c -0.102439,0 -0.204878,-0.03415 -0.27317,-0.136586 l -3.858537,-3.858536 c -1.0243898,0.887805 -2.3560972,1.4 -3.7219508,1.4 -3.1414639,0 -5.702439,-2.5609752 -5.702439,-5.702439 C 1.0190292,3.5609761 3.5800043,1 6.7214682,1 c 3.1414634,0 5.7024388,2.5609761 5.7024388,5.702439 0,1.3999998 -0.512195,2.6975608 -1.4,3.756097 l 3.858536,3.858538 c 0.136586,0.136584 0.136586,0.409756 -0.03415,0.54634 z M 11.604395,6.668293 c 0,-2.6975608 -2.2195122,-4.9170737 -4.9170728,-4.9170737 -2.6975618,0 -4.9170737,2.2195129 -4.9170737,4.9170737 0,2.6975609 2.2195119,4.917073 4.9170737,4.917073 1.2975607,0 2.5609753,-0.512195 3.4829258,-1.434147 C 11.0922,9.2292682 11.604395,8 11.604395,6.668293 z M 6.5165906,3.5268292 C 4.8434195,3.7999996 3.6482972,5.2000004 3.6482972,6.8731706 c 0,0.1365857 0,0.3073173 0.034147,0.4780489 0.034147,0.1707316 -0.1024398,0.3756101 -0.3073173,0.3756101 0,0 -0.034147,0 -0.034147,0 -0.1707326,0 -0.3073173,-0.1365857 -0.3414642,-0.3073173 -0.034147,-0.2048785 -0.034147,-0.409756 -0.034147,-0.5804876 0,-2.0146344 1.4341467,-3.7219515 3.4487801,-4.0292688 0.1707316,-0.034147 0.3756101,0.1024397 0.3756101,0.2731713 0.034147,0.2390245 -0.068294,0.443902 -0.2731704,0.443902 z"
       id="path27" />
  </g>
</svg>
